<svg width="215" height="79" viewBox="0 0 215 79" fill="none" xmlns="http://www.w3.org/2000/svg">
<path d="M38.2364 44.2888C40.9979 44.2888 43.2366 41.9957 43.2366 39.167C43.2366 36.3383 40.9979 34.0451 38.2364 34.0451C35.4749 34.0451 33.2363 36.3383 33.2363 39.167C33.2363 41.9957 35.4749 44.2888 38.2364 44.2888Z" fill="#1976D2"/>
<path d="M38.2364 0C17.1191 0 0 17.5358 0 39.167C0 60.7982 17.1191 78.334 38.2364 78.334C59.3537 78.334 76.4728 60.7982 76.4728 39.167C76.4728 17.5358 59.3537 0 38.2364 0ZM23.6575 9.74114C28.0343 7.46193 32.9889 6.17651 38.2364 6.17651C38.5446 6.17651 38.85 6.18076 39.1555 6.18926C39.6627 6.20341 40.0109 7.49449 39.9349 9.05596L39.5452 17.0927C39.4692 18.6541 39.1458 19.9041 38.8224 19.8942C38.6275 19.8886 38.4327 19.8857 38.2364 19.8857C35.4765 19.8857 32.8548 20.4945 30.4929 21.5874C29.1012 22.2315 27.4359 21.8478 26.6592 20.5016L22.6569 13.5691C21.8802 12.2228 22.2962 10.4504 23.6575 9.74114ZM22.093 24.4838L16.1807 19.1864C15.0309 18.1572 14.912 16.3636 16.0163 15.2849C16.0425 15.2594 16.0674 15.2353 16.095 15.2098C17.2034 14.1339 18.9406 14.3534 19.8776 15.5864L24.7064 21.9342C25.6448 23.1672 25.8632 24.6084 25.2468 25.21C24.629 25.8145 23.2429 25.513 22.093 24.4838ZM24.7064 39.167C24.7064 31.5125 30.7638 25.3077 38.2364 25.3077C45.709 25.3077 51.7664 31.5125 51.7664 39.167C51.7664 46.8215 45.709 53.0263 38.2364 53.0263C30.7638 53.0263 24.7064 46.8215 24.7064 39.167ZM52.7518 68.6254C48.3901 70.8848 43.4577 72.1575 38.2364 72.1575C37.8937 72.1575 37.5523 72.1518 37.2123 72.1419C36.6471 72.1235 36.256 70.8268 36.3389 69.2653L36.7673 61.23C36.8516 59.6686 37.2123 58.4256 37.5772 58.4383C37.7956 58.4454 38.0153 58.4497 38.2364 58.4497C40.771 58.4497 43.1868 57.9372 45.3939 57.0085C46.8063 56.414 48.538 56.8047 49.37 58.1156L53.6556 64.8683C54.4876 66.1777 54.1145 67.919 52.7518 68.6254ZM60.2824 63.2176C59.2238 64.2369 57.5115 63.9976 56.5468 62.7858L51.5854 56.547C50.6207 55.3352 50.3747 53.9309 50.9842 53.3547C51.595 52.7785 52.9785 53.1013 54.1269 54.1319L60.042 59.4321C61.1918 60.4613 61.3424 62.1983 60.2824 63.2176Z" fill="#1976D2"/>
<path d="M89.8213 58.8911H85.7368V68H80.6099V43.1172H89.8555C92.7949 43.1172 95.0622 43.7723 96.6572 45.0825C98.2523 46.3927 99.0498 48.2441 99.0498 50.6367C99.0498 52.3343 98.6795 53.7528 97.939 54.8921C97.2098 56.02 96.099 56.9201 94.6064 57.5923L99.9897 67.7607V68H94.4868L89.8213 58.8911ZM85.7368 54.7383H89.8726C91.16 54.7383 92.1569 54.4136 92.8633 53.7642C93.5697 53.1034 93.9229 52.1976 93.9229 51.0469C93.9229 49.8734 93.5868 48.9505 92.9146 48.2783C92.2537 47.6061 91.234 47.27 89.8555 47.27H85.7368V54.7383ZM117.934 57.2163H108.09V63.8813H119.643V68H102.963V43.1172H119.609V47.27H108.09V53.2002H117.934V57.2163ZM142.185 59.7114C141.991 62.3888 141 64.4966 139.211 66.0347C137.434 67.5728 135.087 68.3418 132.17 68.3418C128.98 68.3418 126.468 67.2708 124.633 65.1289C122.81 62.9756 121.899 60.0247 121.899 56.2764V54.7554C121.899 52.3628 122.32 50.255 123.164 48.4321C124.007 46.6092 125.209 45.2135 126.77 44.2451C128.342 43.2653 130.165 42.7754 132.238 42.7754C135.109 42.7754 137.422 43.5444 139.177 45.0825C140.931 46.6206 141.945 48.7796 142.219 51.5596H137.092C136.966 49.9531 136.516 48.791 135.742 48.0732C134.978 47.3441 133.811 46.9795 132.238 46.9795C130.529 46.9795 129.248 47.5947 128.393 48.8252C127.55 50.0443 127.117 51.9412 127.094 54.5161V56.396C127.094 59.0848 127.499 61.0501 128.308 62.292C129.128 63.5339 130.415 64.1548 132.17 64.1548C133.754 64.1548 134.933 63.7959 135.708 63.0781C136.494 62.349 136.944 61.2267 137.058 59.7114H142.185ZM165.991 56.1226C165.991 58.5721 165.558 60.7197 164.692 62.5654C163.826 64.4111 162.584 65.8353 160.966 66.8379C159.36 67.8405 157.514 68.3418 155.429 68.3418C153.367 68.3418 151.527 67.8462 149.909 66.855C148.291 65.8638 147.038 64.451 146.149 62.6167C145.261 60.771 144.811 58.6519 144.799 56.2593V55.0288C144.799 52.5793 145.238 50.4259 146.115 48.5688C147.004 46.7004 148.251 45.2705 149.858 44.2793C151.476 43.2767 153.321 42.7754 155.395 42.7754C157.469 42.7754 159.309 43.2767 160.915 44.2793C162.533 45.2705 163.78 46.7004 164.658 48.5688C165.546 50.4259 165.991 52.5736 165.991 55.0117V56.1226ZM160.795 54.9946C160.795 52.3856 160.328 50.4032 159.394 49.0474C158.46 47.6916 157.127 47.0137 155.395 47.0137C153.675 47.0137 152.347 47.6859 151.413 49.0303C150.479 50.3633 150.006 52.3229 149.995 54.9092V56.1226C149.995 58.6632 150.462 60.6343 151.396 62.0356C152.33 63.437 153.675 64.1377 155.429 64.1377C157.15 64.1377 158.471 63.4655 159.394 62.1211C160.317 60.7653 160.784 58.7943 160.795 56.208V54.9946ZM178.928 58.8911H174.843V68H169.716V43.1172H178.962C181.901 43.1172 184.169 43.7723 185.764 45.0825C187.359 46.3927 188.156 48.2441 188.156 50.6367C188.156 52.3343 187.786 53.7528 187.045 54.8921C186.316 56.02 185.205 56.9201 183.713 57.5923L189.096 67.7607V68H183.593L178.928 58.8911ZM174.843 54.7383H178.979C180.266 54.7383 181.263 54.4136 181.97 53.7642C182.676 53.1034 183.029 52.1976 183.029 51.0469C183.029 49.8734 182.693 48.9505 182.021 48.2783C181.36 47.6061 180.34 47.27 178.962 47.27H174.843V54.7383ZM192.07 68V43.1172H199.726C201.914 43.1172 203.868 43.6128 205.588 44.604C207.32 45.5838 208.67 46.9852 209.638 48.8081C210.607 50.6196 211.091 52.6818 211.091 54.9946V56.1396C211.091 58.4525 210.612 60.509 209.655 62.3091C208.71 64.1092 207.371 65.5049 205.639 66.4961C203.907 67.4873 201.953 67.9886 199.777 68H192.07ZM197.197 47.27V63.8813H199.675C201.68 63.8813 203.212 63.2262 204.272 61.916C205.332 60.6058 205.873 58.7316 205.896 56.2935V54.9775C205.896 52.4482 205.371 50.5342 204.323 49.2354C203.275 47.9251 201.743 47.27 199.726 47.27H197.197Z" fill="#1976D2"/>
</svg>
